<?xml version="1.0" encoding="UTF-8" standalone="no" ?>
<!-- Created with Inkscape (http://www.inkscape.org/) -->
<svg
    width="48"
    height="48"
    viewBox="0 0 12.7 12.7"
    version="1.1"
    id="svg1"
    xmlns="http://www.w3.org/2000/svg"
    xmlns:svg="http://www.w3.org/2000/svg"
>
  <defs id="defs1" />
  <g id="layer1">
    <path
            style="fill:currentColor;stroke-width:0.212198"
            d="m 3.6168713,11.495481 c -0.2342,-0.175853 -0.63088,-0.557568 -0.83268,-0.801282 -1.1259,-1.3597299 -1.598,-3.2188579 -1.28507,-5.0606459 0.0623,-0.366822 0.20613,-0.875704 0.35469,-1.255028 0.059,-0.150716 0.28464,-0.627955 0.32738,-0.69249 0.0129,-0.0195 0.0512,0.0062 0.17612,0.118196 0.61781,0.553941 1.34909,1.034196 1.9801,1.300428 0.35736,0.150776 0.62314,0.23021 0.97019,0.289971 0.22769,0.03921 0.31104,0.08577 0.37693,0.21057 0.0829,0.157095 0.10771,0.0677 -0.69514,2.507504 -0.40511,1.231081 -0.83116,2.5287219 -0.94678,2.8836459 -0.11561,0.354924 -0.2149,0.645316 -0.22063,0.645316 -0.006,0 -0.098,-0.06578 -0.20511,-0.146185 z m 5.25429,0.133124 c -0.004,-0.0075 -0.40201,-1.211259 -0.88335,-2.6750129 -0.48137,-1.463755 -0.90683,-2.757513 -0.94547,-2.87502 -0.0826,-0.251281 -0.0888,-0.353389 -0.0284,-0.471722 0.0624,-0.122182 0.15106,-0.17462 0.34928,-0.206527 0.43994,-0.07082 0.85757,-0.212266 1.33688,-0.452794 0.50353,-0.252678 1.11266,-0.673888 1.5985497,-1.105397 0.15567,-0.138234 0.20622,-0.174142 0.21886,-0.155463 0.0446,0.0658 0.22241,0.433864 0.29447,0.609432 0.76656,1.867221 0.61404,4.024903 -0.40335,5.7063839 -0.35838,0.592296 -0.8019997,1.09245 -1.3181897,1.486122 -0.19868,0.15153 -0.20863,0.157876 -0.21933,0.139998 z m -2.83368,-0.681033 c -0.38325,-0.02797 -0.75118,-0.09702 -1.0918,-0.204889 -0.0925,-0.02931 -0.14534,-0.05487 -0.14044,-0.06799 0.004,-0.01156 0.0738,-0.225301 0.15434,-0.474971 0.0806,-0.2496709 0.15235,-0.4601409 0.15955,-0.4677129 0.007,-0.0076 0.0966,0.0061 0.19868,0.03042 0.36413,0.08667 0.56292,0.107373 1.03119,0.107373 0.46968,0 0.66422,-0.0204 1.03812,-0.108838 0.10586,-0.02505 0.19431,-0.04271 0.19651,-0.03926 0.002,0.0035 0.0713,0.214558 0.15349,0.4691239 0.0822,0.254566 0.15261,0.472281 0.15645,0.483812 0.009,0.02606 -0.24912,0.110031 -0.52986,0.172545 -0.39303,0.08753 -0.93764,0.128754 -1.32623,0.100397 z m -0.0356,-1.7389519 c -0.31146,-0.02631 -0.66755,-0.09109 -0.66755,-0.121456 0,-0.01262 0.0724,-0.244174 0.16091,-0.514565 0.15167,-0.463352 0.16318,-0.49112 0.20027,-0.482916 0.21237,0.04698 0.8386,0.05765 1.15196,0.01962 0.10281,-0.01247 0.19206,-0.01787 0.19834,-0.01199 0.006,0.0059 0.0807,0.225081 0.16532,0.487115 0.0846,0.262034 0.158,0.487123 0.16301,0.500197 0.0102,0.02634 -0.30484,0.08684 -0.61567,0.118271 -0.15805,0.01598 -0.59589,0.01929 -0.75659,0.0057 z m -0.24031,-4.751263 c -0.49924,-0.06403 -1.00752,-0.214873 -1.46867,-0.435844 -0.5031,-0.241084 -1.08288,-0.659107 -1.47585,-1.064081 l -0.0873,-0.08999 0.15658,-0.179782 c 0.41482,-0.476323 0.94593,-0.885534 1.51341,-1.166082 0.31942,-0.157912 0.53795,-0.23999 0.85193,-0.319985 1.05191,-0.26799495 2.08593,-0.159382 3.05366,0.320752 0.55982,0.277748 1.14005,0.729023 1.53401,1.193052 l 0.12923,0.152232 -0.13194,0.134057 c -0.0726,0.07373 -0.23121,0.217415 -0.35255,0.319295 -0.75969,0.637931 -1.6224,1.020196 -2.5661,1.137029 -0.27196,0.03367 -0.89155,0.03332 -1.15639,-7e-4 z"
            id="path30"
        />
  </g>
</svg>
