<?xml version="1.0" encoding="UTF-8" standalone="no" ?>
<!-- Created with Inkscape (http://www.inkscape.org/) -->
<svg
    width="48"
    height="48"
    viewBox="0 0 12.7 12.7"
    version="1.1"
    id="svg1"
    xmlns="http://www.w3.org/2000/svg"
    xmlns:svg="http://www.w3.org/2000/svg"
>
  <defs id="defs1" />
  <g id="layer1">
    <path
            style="fill:currentColor;stroke-width:0.280375"
            d="m 5.6247744,11.618897 c -1.60901,-0.137013 -3.11387,-0.713664 -4.33224,-1.6601014 -0.28298,-0.219811 -0.77798,-0.699976 -1.02634,-0.9956 -0.65989,-0.785451 -1.11354,-1.750901 -1.30352,-2.774129 -0.0611,-0.329457 -0.0861,-1.170081 -0.0451,-1.524121 0.0773,-0.668674 0.24597,-1.242734 0.5471,-1.861868 0.27165,-0.558588 0.62568,-1.071566 1.04613,-1.515826 l 0.21665,-0.228921 0.15661,0.143495 c 0.73058,0.669443 1.65912,1.218721 2.62804,1.554589 0.14361,0.04978 0.26513,0.09355 0.27,0.09725 0.005,0.0037 -0.0401,0.116682 -0.10006,0.251065 -0.32762,0.734889 -0.46041,1.443728 -0.43618,2.328403 0.0179,0.658697 0.10663,1.135023 0.31458,1.691639 0.66188,1.771503 2.17804,2.685265 3.60111,2.170339 1.16608,-0.42194 2.04982,-1.724465 2.26052,-3.331742 0.0473,-0.361091 0.0474,-1.044328 0,-1.408366 -0.067,-0.516102 -0.21715,-1.046455 -0.42042,-1.485217 -0.053,-0.114434 -0.0921,-0.21139 -0.0869,-0.215458 0.005,-0.0041 0.12704,-0.04808 0.27065,-0.0978 0.52957,-0.183347 1.1680396,-0.491766 1.6373596,-0.790935 0.25632,-0.163389 0.76363,-0.551292 0.96409,-0.737164 l 0.18015,-0.16702 0.17896,0.182421 c 0.64817,0.660696 1.19011,1.583816 1.43869,2.450642 0.16127,0.562457 0.21788,0.969073 0.21788,1.565533 0,0.916481 -0.17243,1.652123 -0.58142,2.480664 -0.31626,0.640647 -0.65481,1.114079 -1.1695,1.635418 -1.2757,1.2921874 -3.0572896,2.0883644 -5.0239196,2.2451474 -0.35359,0.02819 -1.05836,0.02702 -1.40306,-0.0023 z m 0.48853,-4.1650474 c -0.36003,-0.130971 -0.67212,-0.534785 -0.85158,-1.101879 -0.1133,-0.358069 -0.15429,-0.648005 -0.15429,-1.091967 0,-0.837233 0.22113,-1.519707 0.62355,-1.924457 0.23753,-0.238903 0.35282,-0.293809 0.61781,-0.294257 0.26764,-5e-4 0.41142,0.06939 0.64152,0.311617 0.13049,0.137386 0.19102,0.228111 0.29395,0.440656 0.22116,0.456672 0.30737,0.86798 0.30737,1.466441 0,0.597167 -0.0867,1.012171 -0.3051,1.459912 -0.17798,0.364938 -0.36749,0.579371 -0.62002,0.70162 -0.14552,0.07044 -0.40649,0.08568 -0.55321,0.03231 z"
            id="path34"
        />
  </g>
</svg>
