<?xml version="1.0" encoding="UTF-8" standalone="no" ?>
<!-- Created with Inkscape (http://www.inkscape.org/) -->
<svg
    width="48"
    height="48"
    viewBox="0 0 12.7 12.7"
    version="1.1"
    id="svg1"
    xmlns="http://www.w3.org/2000/svg"
    xmlns:svg="http://www.w3.org/2000/svg"
>
  <defs id="defs1" />
  <g id="layer1">
    <path
            style="fill:currentColor;stroke-width:0.210036"
            d="m 6.1419074,11.633777 c -0.55767,-0.06417 -0.90347,-0.35103 -1.07389,-0.890838 -0.0891,-0.282269 -0.0987,-0.380829 -0.0993,-1.015148 V 9.12926 l -0.27632,-0.281731 c -0.69014,-0.703639 -1.01748,-1.359799 -1.10315,-2.211195 -0.0463,-0.460376 0.0355,-1.08012 0.19963,-1.512412 0.10645,-0.280339 0.29775,-0.603358 0.47338,-0.799386 l 0.0876,-0.09781 0.0662,-0.311204 c 0.32792,-1.54122 0.66361,-2.785397 0.76909,-2.850593 0.10121,-0.06255 0.26218,0.552225 0.47632,1.819176 0.0845,0.500098 0.0944,0.542041 0.12623,0.538 0.0189,-0.0024 0.11058,-0.01637 0.2035,-0.03102 0.27093,-0.04271 0.6982,-0.02592 0.91582,0.03599 0.0336,0.0096 0.0398,-0.01549 0.11237,-0.457596 0.17616,-1.072624 0.3453,-1.794202 0.44362,-1.892528 0.0266,-0.02657 0.0312,-0.02582 0.0599,0.0096 0.12758,0.15756 0.45326,1.393579 0.80165,3.042346 0.0162,0.07617 0.0399,0.119447 0.1076,0.195614 0.68823,0.774259 0.8861,2.14404 0.46366,3.209574 -0.19563,0.493448 -0.4763,0.901372 -0.93813,1.363478 l -0.24272,0.242875 0.012,0.47734 c 0.008,0.337625 0.006,0.534595 -0.0103,0.672953 -0.0867,0.76328 -0.41234,1.194696 -0.99242,1.314706 -0.15906,0.03291 -0.42814,0.046 -0.58186,0.02832 z m -1.26133,-4.629165 c -0.38766,-0.688711 -0.71698,-1.267383 -0.73181,-1.285937 -0.0242,-0.03027 -0.0261,0.02385 -0.0187,0.526433 0.009,0.579534 0.0289,0.796267 0.10079,1.079973 0.055,0.216785 0.12829,0.349539 0.24258,0.439242 0.1273,0.09991 0.3216,0.210426 0.52154,0.296616 0.17015,0.07336 0.57327,0.212974 0.58398,0.202258 0.004,-0.0035 -0.31081,-0.569873 -0.69847,-1.258585 z m 2.40202,1.212413 c 0.33774,-0.104086 0.70526,-0.278652 0.90311,-0.428968 0.19403,-0.147414 0.26614,-0.313709 0.34133,-0.78717 0.0341,-0.214707 0.0577,-1.327601 0.0275,-1.298163 -0.0101,0.0098 -0.3357,0.581951 -0.72375,1.271489 -0.38804,0.689538 -0.7092,1.259708 -0.71368,1.267044 -0.0139,0.0226 0.0382,0.01497 0.16545,-0.02423 z m -4.86161,1.481616 c -0.53641,-0.666865 -0.93384,-1.418064 -1.10641,-2.091211 -0.0964,-0.37605 -0.11453,-0.522787 -0.11453,-0.926638 0,-0.517018 0.0662,-0.928003 0.22069,-1.369296 0.12331,-0.352289 0.36651,-0.784844 0.56487,-1.004666 l 0.0882,-0.09773 0.009,0.364476 c 0.007,0.256232 0.0202,0.426424 0.0464,0.573066 0.0712,0.398917 0.23209,0.808509 0.43809,1.1153 0.0999,0.148838 0.34547,0.41515 0.44879,0.486741 0.0671,0.04649 0.0684,0.04974 0.0908,0.216576 0.0465,0.346454 0.1683,0.756053 0.35343,1.188526 l 0.0977,0.228179 -0.0419,0.02778 c -0.103,0.06828 -0.3735,0.365677 -0.4831,0.531126 -0.14446,0.218059 -0.30222,0.528774 -0.38586,0.759958 -0.0342,0.0944 -0.0675,0.171725 -0.0742,0.171831 -0.007,10e-5 -0.0752,-0.0782 -0.15222,-0.17402 z m 7.6776496,0.129755 c -0.0115,-0.02934 -0.0373,-0.09736 -0.0572,-0.151156 C 9.969337,9.48256 9.7976274,9.148493 9.6713074,8.957025 9.5501974,8.773449 9.2537574,8.446949 9.1667174,8.40126 c -0.032,-0.01679 -0.0287,-0.02942 0.06,-0.228929 0.17456,-0.392567 0.3353,-0.942723 0.3667,-1.255142 0.0113,-0.113407 0.0153,-0.121632 0.0816,-0.167483 0.0383,-0.02652 0.13646,-0.118489 0.21818,-0.204375 C 10.369667,6.044647 10.612977,5.35417 10.614987,4.49701 V 4.208946 l 0.0877,0.09406 c 0.20376,0.218442 0.44406,0.64897 0.57775,1.035164 0.22506,0.650027 0.28042,1.403041 0.15051,2.04671 -0.0786,0.389628 -0.19107,0.704826 -0.40852,1.145351 -0.21917,0.44404 -0.55061,0.949759 -0.8333,1.271489 l -0.0703,0.08002 z"
            id="path33"
        />
  </g>
</svg>
