<?xml version="1.0" encoding="UTF-8" standalone="no" ?>
<!-- Created with Inkscape (http://www.inkscape.org/) -->
<svg
    width="48"
    height="48"
    viewBox="0 0 12.7 12.7"
    version="1.1"
    id="svg1"
    xmlns="http://www.w3.org/2000/svg"
    xmlns:svg="http://www.w3.org/2000/svg"
>
  <defs id="defs1" />
  <g id="layer1">
    <path
            style="fill:currentColor;stroke-width:0.21054"
            d="m 5.1237969,11.621286 c 0.0061,-0.01621 0.24511,-0.742162 0.53119,-1.613231 0.28608,-0.8710703 0.5233,-1.5890523 0.52713,-1.5955163 0.0038,-0.0065 -0.13142,-0.09396 -0.30056,-0.194439 -0.75134,-0.446295 -1.49726,-0.986212 -2.20464,-1.595736 -0.23593,-0.203288 -0.62526,-0.575014 -0.62526,-0.596974 0,-0.0208 0.31358,-0.5997 0.60276,-1.112772 0.80171,-1.422432 1.7435,-2.876337 2.3762,-3.668334 l 0.14853,-0.185951 0.12525,0.05322 c 1.0556801,0.448641 2.2197701,1.146332 3.1691401,1.899388 0.1912,0.15166 0.19168,0.152236 0.15782,0.189088 -0.01873,0.02033 -0.55696,0.630549 -1.19618,1.356042 l -1.16221,1.319078 0.06152,0.05351 c 0.18983,0.165079 1.99184,1.836486 1.99184,1.847461 0,0.0116 -4.0937901,3.7805673 -4.1795201,3.8478953 -0.03067,0.0241 -0.03295,0.02383 -0.02301,-0.0027 z"
            id="path22"
        />
  </g>
</svg>
