<?xml version="1.0" encoding="UTF-8" standalone="no" ?>
<!-- Created with Inkscape (http://www.inkscape.org/) -->
<svg
    width="48"
    height="48"
    viewBox="0 0 12.7 12.7"
    version="1.1"
    id="svg1"
    xmlns="http://www.w3.org/2000/svg"
    xmlns:svg="http://www.w3.org/2000/svg"
>
  <defs id="defs1" />
  <g id="layer1">
    <path
            style="fill:currentColor;stroke-width:0.209941"
            d="m 4.8164836,11.60595 c -0.2006,-0.157779 -0.0918,-0.995343 0.29788,-2.2934214 0.0628,-0.209303 0.15737,-0.51053 0.21007,-0.669394 0.0527,-0.158864 0.0932,-0.288844 0.09,-0.288844 -0.003,0 -0.0364,0.01935 -0.0739,0.04301 -0.23626,0.149138 -0.8047,0.403319 -1.14875,0.51367 -0.35556,0.114033 -0.71596,0.1529 -0.94134,0.101511 -0.47736,-0.108847 -0.64164,-0.641494 -0.41965,-1.360611 0.11232,-0.363784 0.37849,-0.909713 0.62905,-1.290192 l 0.0305,-0.04626 -0.17301,-0.104675 c -0.5161,-0.31225 -1.00683,-0.756529 -1.36567,-1.23637 -0.73397,-0.981472 -0.97347001,-2.217791 -0.59803,-3.087191 0.16862,-0.390481 0.43808,-0.649114 0.81184,-0.779214 0.13614,-0.0474 0.15653,-0.0495 0.47992,-0.04963 0.37597,-10e-5 0.58777,0.0211 0.96955,0.09725 0.88644,0.176832 1.67187,0.573918 2.16789,1.095999 0.29869,0.314392 0.50668,0.707987 0.54459,1.030653 0.0128,0.108309 0.0418,0.146578 0.0418,0.05501 0,-0.11037 0.0718,-0.340366 0.168,-0.538223 0.37856,-0.778545 1.3488,-1.403664 2.55078,-1.64344 0.38066,-0.07594 0.59289,-0.0972 0.9695504,-0.09712 0.31758,6.8e-5 0.34596,0.0029 0.47598,0.04678 0.5385,0.181926 0.88517,0.67195 0.97387,1.376623 0.0294,0.233847 0.0124,0.655128 -0.0366,0.904306 -0.10558,0.537182 -0.36929,1.11939 -0.71938,1.588196 -0.36003,0.482134 -0.8856404,0.955513 -1.3946804,1.256095 l -0.14409,0.08509 0.0305,0.04618 c 0.38759,0.587177 0.66469,1.249078 0.71919,1.717869 0.0568,0.488942 -0.13967,0.848441 -0.5099,0.932863 -0.22537,0.05139 -0.5858,0.01252 -0.94134,-0.101511 -0.3443,-0.110425 -0.91253,-0.364542 -1.14911,-0.513893 -0.0377,-0.02378 -0.0685,-0.03773 -0.0685,-0.03101 0,0.0067 0.0397,0.133245 0.0882,0.281169 0.2451,0.747396 0.47062,1.5818534 0.55493,2.0533614 0.0525,0.29372 0.0581,0.742415 0.0103,0.829903 -0.12521,0.228911 -0.37993,0.0967 -0.62896,-0.326433 -0.37389,-0.635268 -0.7804,-1.9131584 -0.9292,-2.9208704 -0.0181,-0.122203 -0.0367,-0.210189 -0.0414,-0.195525 -0.005,0.01466 -0.0298,0.158642 -0.0557,0.31995 -0.13654,0.850456 -0.47033,1.9503024 -0.77926,2.5678124 -0.26013,0.519952 -0.52796,0.76262 -0.69589,0.630522 z m 2.07356,-5.3469414 c 0.42654,-0.09969 0.79331,-0.333908 1.03329,-0.659843 0.0805,-0.1094 0.20562,-0.335236 0.20562,-0.371269 0,-0.0092 -0.034,-0.02197 -0.0755,-0.02846 -0.16321,-0.02549 -0.47451,-0.115526 -0.62728,-0.181414 -0.4704,-0.202882 -0.75984,-0.455121 -0.93271,-0.812817 -0.0687,-0.142177 -0.12342,-0.329153 -0.12393,-0.423538 0,-0.02688 -0.008,-0.04888 -0.0181,-0.04888 -0.01,0 -0.0178,0.022 -0.0181,0.04888 0,0.176275 -0.13414,0.493678 -0.2904,0.692051 -0.25858,0.328272 -0.76943,0.605491 -1.30499,0.708158 -0.18739,0.03593 -0.18244,0.025 -0.0926,0.203985 0.19373,0.385843 0.60337,0.714997 1.04832,0.842355 0.22995,0.06582 0.37531,0.08097 0.71101,0.07409 0.25064,-0.0051 0.36601,-0.01543 0.48525,-0.0433 z"
            id="path36"
        />
  </g>
</svg>
