<?xml version="1.0" encoding="UTF-8" standalone="no" ?>
<!-- Created with Inkscape (http://www.inkscape.org/) -->
<svg
    width="48"
    height="48"
    viewBox="0 0 12.7 12.7"
    version="1.1"
    id="svg1"
    xmlns="http://www.w3.org/2000/svg"
    xmlns:svg="http://www.w3.org/2000/svg"
>
  <defs id="defs1" />
  <g id="layer1">
    <path
            style="fill:currentColor;stroke-width:0.22094"
            d="m 4.8721826,11.62502 c -0.18585,-0.02322 -0.44278,-0.09909 -0.6173,-0.182294 -0.269551,-0.128517 -2.298361,-1.257743 -2.402421,-1.337185 -0.1281,-0.09777 -0.25068,-0.2755927 -0.29995,-0.4350997 -0.03626,-0.117402 -0.03809,-0.170333 -0.03809,-1.092916 0,-0.637075 0.0068,-0.987597 0.01988,-1.022199 0.01083,-0.02896 0.05073,-0.08448 0.08854,-0.123376 0.12699,-0.130725 0.04423,-0.125701 2.07091,-0.125701 2.022161,0 1.943901,-0.0047 2.072381,0.123793 0.08323,0.08323 0.1006,0.136908 0.11394,0.352181 0.01259,0.204466 0.06107,0.311522 0.17799,0.393698 l 0.08007,0.05629 2.37878,0.0093 2.3787714,0.0093 0.08345,0.04677 c 0.17936,0.100508 0.21319,0.211449 0.20238,0.663998 -0.0068,0.285599 -0.01436,0.35527 -0.04969,0.45838 -0.08559,0.249818 -0.26943,0.456059 -0.50739,0.569166 -0.09456,0.04495 -4.7318314,1.5246267 -4.9839514,1.5902967 -0.24031,0.06259 -0.50558,0.0783 -0.76823,0.0455 z m 2.16995,-4.2607037 c -0.04116,-0.01905 -0.09755,-0.05885 -0.12527,-0.08844 -0.10709,-0.11419 -0.1086,-0.127166 -0.10816,-0.927719 0,-0.6703 0.0033,-0.741407 0.03447,-0.809808 0.04258,-0.0937 0.14841,-0.188227 0.24074,-0.215003 0.04944,-0.01434 0.6314,-0.01878 1.95181,-0.01487 l 1.8813514,0.0056 0.07709,0.05102 c 0.04239,0.02806 0.1007,0.0912 0.12958,0.140298 l 0.05247,0.08927 v 0.759081 0.759081 l -0.05621,0.09206 c -0.04222,0.06913 -0.08148,0.104866 -0.15768,0.143498 l -0.10148,0.05144 -1.8719414,-4e-4 c -1.78217,-4e-4 -1.87554,-0.0021 -1.94677,-0.03505 z m -5.294041,-1.23363 c -0.08065,-0.03707 -0.18791,-0.146879 -0.21622,-0.221351 -0.01038,-0.0275 -0.01723,-0.947104 -0.01701,-2.294118 0,-2.146547 0.0022,-2.251658 0.035,-2.324363 0.04682,-0.103086 0.15609,-0.189307 0.2722,-0.214788 0.06082,-0.01335 0.27823,-0.01855 0.609,-0.01456 0.55979,0.0067 0.56733,0.0081 0.68023,0.120986 0.12386,0.12386 0.1148,-0.06812 0.1148,2.429268 v 2.263461 l -0.04677,0.08335 c -0.02572,0.04584 -0.08325,0.108975 -0.12784,0.140298 l -0.08108,0.05695 -0.57365,0.0047 c -0.5237,0.0043 -0.58017,0.0017 -0.64862,-0.0298 z m 2.675141,0.01191 c -0.08972,-0.03137 -0.17478,-0.104427 -0.21997,-0.188959 l -0.04191,-0.07842 -0.0051,-2.222938 c -0.0035,-1.597905 0,-2.244844 0.01591,-2.300842 0.02753,-0.102235 0.16798,-0.244045 0.26957,-0.272167 0.0994,-0.02752 1.03102,-0.02798 1.1399,-6e-4 0.10055,0.02532 0.20585,0.110294 0.25425,0.205181 0.03608,0.07073 0.03688,0.120256 0.03688,2.327725 0,2.451371 0.0057,2.319192 -0.10495,2.429962 -0.11783,0.117959 -0.14798,0.122878 -0.74618,0.121703 -0.32739,-6e-4 -0.56475,-0.0088 -0.59862,-0.02068 z m 2.68666,-1.585677 c -0.09414,-0.02302 -0.20901,-0.112355 -0.25317,-0.196909 -0.03867,-0.07405 -0.03907,-0.09013 -0.03907,-1.555689 v -1.480862 l 0.05694,-0.08111 c 0.03133,-0.04461 0.09445,-0.102157 0.1403,-0.127878 l 0.08336,-0.04677 h 0.57053 0.57054 l 0.08764,0.05151 c 0.10084,0.05928 0.15159,0.123017 0.18241,0.22908 0.01591,0.05473 0.02033,0.459454 0.01613,1.507334 l -0.0055,1.432509 -0.05628,0.09103 c -0.03994,0.0646 -0.08322,0.104904 -0.14909,0.13882 -0.09248,0.04763 -0.09452,0.0478 -0.61713,0.05108 -0.28839,0.0018 -0.55277,-0.0037 -0.58752,-0.01215 z m 2.653871,7e-4 c -0.12797,-0.03892 -0.21014,-0.106709 -0.27361,-0.225703 -0.03323,-0.0623 -0.03491,-0.135755 -0.03491,-1.51521 v -1.449742 l 0.04154,-0.07769 c 0.05393,-0.100837 0.15746,-0.18505 0.25894,-0.210602 0.10676,-0.02688 1.0404504,-0.02699 1.1371804,-10e-5 0.03966,0.01101 0.1091,0.05412 0.1543,0.09579 0.14275,0.131578 0.13836,0.07971 0.13836,1.637485 0,0.989144 -0.0062,1.396966 -0.02188,1.459855 -0.03018,0.119839 -0.16161,0.251275 -0.28145,0.281451 -0.09795,0.02466 -1.0396404,0.02845 -1.1183804,0.0045 z"
            id="path25"
        />
  </g>
</svg>
