<?xml version="1.0" encoding="UTF-8" standalone="no" ?>
<!-- Created with Inkscape (http://www.inkscape.org/) -->
<svg
    width="48"
    height="48"
    viewBox="0 0 12.7 12.7"
    version="1.1"
    id="svg1"
    xmlns="http://www.w3.org/2000/svg"
    xmlns:svg="http://www.w3.org/2000/svg"
>
  <defs id="defs1" />
  <g id="layer1">
    <path
            style="fill:currentColor;stroke-width:0.209919"
            d="m 6.190575,11.638037 c -0.02444,-0.0034 -0.108417,-0.01192 -0.186619,-0.01885 l -0.142186,-0.01261 0.124413,-0.02948 c 0.312154,-0.07396 0.624436,-0.212554 0.85828,-0.380923 0.172682,-0.124333 0.398246,-0.35185 0.523509,-0.528042 0.167117,-0.235062 0.297775,-0.545566 0.297775,-0.7076505 0,-0.127121 -0.05855,-0.336691 -0.142543,-0.510188 C 7.322006,9.0346885 6.956803,8.6596945 6.279339,8.1730775 6.002212,7.9740185 5.831904,7.8131095 5.667878,7.5953615 5.296289,7.1020745 5.090201,6.4117695 5.109446,5.7248595 c 0.0032,-0.114878 10e-4,-0.208854 -0.0048,-0.208834 -0.0181,5.9e-5 -0.342009,0.44194 -0.482082,0.657642 -0.751593,1.157405 -1.068087,2.218745 -0.919978,3.08509 0.110617,0.647045 0.47718,1.3164835 1.048402,1.9146625 L 4.934441,11.36553 4.829368,11.31916 C 3.708206,10.824341 2.893991,9.8160785 2.644406,8.6134615 2.438439,7.6210225 2.638606,6.7315855 3.285384,5.7648875 3.604917,5.2873235 3.890008,4.9529755 4.679624,4.1297555 5.225234,3.5609275 5.427901,3.3318285 5.567952,3.1255715 5.769519,2.8287185 5.826928,2.6433635 5.799454,2.3781195 5.744564,1.8481655 5.436058,1.4135945 4.921693,1.1416635 l -0.12252,-0.06477 0.127799,-0.01283 c 0.232977,-0.0234 0.800078,0.02784 1.112539,0.100525 0.549521,0.127823 1.002567,0.395205 1.244799,0.734663 0.104517,0.146467 0.211294,0.375645 0.260833,0.559833 0.03626,0.134808 0.04063,0.191255 0.04056,0.524309 -5.9e-5,0.294551 -0.0069,0.404217 -0.03234,0.520188 -0.0692,0.315197 -0.161069,0.529739 -0.416526,0.972758 -0.150014,0.260157 -0.226215,0.437055 -0.262972,0.610481 -0.09159,0.432125 0.0708,0.893812 0.414188,1.177572 0.08993,0.07431 0.315219,0.199876 0.341797,0.190494 0.0089,-0.0031 -0.01224,-0.04971 -0.04699,-0.103478 -0.09633,-0.148965 -0.212499,-0.401514 -0.257519,-0.559854 -0.03068,-0.107905 -0.04058,-0.189322 -0.04106,-0.337691 -6e-4,-0.18018 0.0034,-0.203687 0.05061,-0.299887 0.107384,-0.218696 0.39757,-0.460325 0.712993,-0.593686 0.174609,-0.07382 0.422024,-0.141555 0.566885,-0.155187 0.05967,-0.0056 0.142949,-0.01444 0.185059,-0.01961 l 0.07656,-0.0094 -0.117349,0.147872 c -0.137465,0.173219 -0.246374,0.379889 -0.276535,0.524766 -0.02886,0.13862 0.0021,0.390937 0.06902,0.563399 0.101245,0.260737 0.230981,0.41438 0.669391,0.792743 0.331923,0.28646 0.485276,0.44197 0.5946,0.602956 0.24443,0.359938 0.334049,0.718846 0.315389,1.263074 -0.01071,0.312301 -0.05057,0.574624 -0.128477,0.845396 -0.379335,1.3184855 -1.52521,2.2620945 -3.008254,2.4772485 -0.212867,0.03088 -0.706102,0.05819 -0.803582,0.04448 z"
            id="path20"
        />
  </g>
</svg>
