<?xml version="1.0" encoding="UTF-8" standalone="no" ?>
<!-- Created with Inkscape (http://www.inkscape.org/) -->
<svg
    width="48"
    height="48"
    viewBox="0 0 12.7 12.7"
    version="1.1"
    id="svg1"
    xmlns="http://www.w3.org/2000/svg"
    xmlns:svg="http://www.w3.org/2000/svg"
>
  <defs id="defs1" />
  <g id="layer1">
    <path
            style="fill:currentColor;stroke-width:0.209771"
            d="m 1.5395622,11.578842 c -0.0777,-0.279814 0.0864,-1.7320701 0.34698,-3.0702331 0.3976,-2.042004 0.94388,-3.670104 1.53311,-4.569182 0.55627,-0.848797 0.96127,-1.044602 3.12686,-1.51178 1.41687,-0.305656 1.48887,-0.327559 2.86834,-0.872624 1.1608898,-0.458699 1.4824498,-0.549627 1.6686398,-0.471836 0.0852,0.03561 0.10503,0.08323 0.0932,0.224202 -0.0282,0.336746 -0.32443,0.926875 -0.71282,1.420155 -0.9536198,1.211156 -2.4847798,2.190284 -4.3968998,2.811688 -0.2263,0.07355 -0.26695,0.0917 -0.22846,0.102057 0.12582,0.03385 0.52523,0.05979 0.90338,0.05868 0.79478,-0.0023 1.33527,-0.09848 2.01581,-0.358616 0.127,-0.04854 0.34725,-0.132674 0.48946,-0.186963 0.29993,-0.114499 0.4012,-0.137159 0.41797,-0.09352 0.0191,0.05 -0.007,0.107333 -0.12087,0.270256 -0.1394,0.19849 -0.59817,0.659655 -0.84871,0.853147 -0.94676,0.731145 -2.10405,1.223943 -3.48996,1.486103 -0.23928,0.04527 -0.30628,0.06333 -0.26641,0.07181 0.13059,0.0278 0.6647,0.08415 0.97013,0.102358 0.41956,0.02501 0.60515,0.0096 1.19666,-0.09937 0.55859,-0.102906 0.78521,-0.112217 0.81542,-0.0335 0.0491,0.128011 -0.4353,0.542659 -0.92901,0.795198 -0.77372,0.395767 -1.73703,0.62423 -2.90602,0.689209 l -0.37328,0.02075 -0.15064,0.213601 c -0.0829,0.11748 -0.30354,0.417684 -0.4904,0.6671191 -0.7221,0.96394 -1.23054,1.504078 -1.44918,1.539559 -0.0623,0.01011 -0.0648,0.0084 -0.0833,-0.05827 z"
            id="path28"
        />
  </g>
</svg>
