<?xml version="1.0" encoding="UTF-8" standalone="no" ?>
<!-- Created with Inkscape (http://www.inkscape.org/) -->
<svg
    width="48"
    height="48"
    viewBox="0 0 12.7 12.7"
    version="1.1"
    id="svg1"
    xmlns="http://www.w3.org/2000/svg"
    xmlns:svg="http://www.w3.org/2000/svg"
>
  <defs id="defs1" />
  <g id="layer1">
    <path
            style="fill:currentColor;stroke-width:0.221086"
            d="m 6.1718163,11.615164 c -0.67666,-0.162403 -1.84629,-1.258094 -2.68544,-2.5156567 -0.15129,-0.226732 -0.34682,-0.544789 -0.40278,-0.655151 -0.0183,-0.03603 -0.0359,-0.06855 -0.0391,-0.07226 -0.003,-0.0037 -0.12644,0.11545 -0.27373,0.264801 -0.4117,0.41748 -0.63958,0.5446 -0.85009,0.474196 -0.26005,-0.08698 -0.62897,-0.492438 -0.98944998,-1.087443 -0.0685,-0.112994 -0.12841,-0.209391 -0.13325,-0.214216 -0.005,-0.0048 -0.0612,0.04246 -0.12525,0.105066 -0.24542,0.239857 -0.53794,0.427314 -0.70093,0.449175 -0.0641,0.0086 -0.0794,0.0032 -0.11328,-0.03989 -0.0584,-0.07426 -0.07,-0.222408 -0.0341,-0.435099 0.0844,-0.499598 0.35623,-1.046311 0.68152,-1.370715 0.25844,-0.25776 0.48877,-0.363359 0.78968998,-0.362061 0.2749,0.0012 0.5169,0.06242 0.84725,0.214369 0.0696,0.03203 0.13013,0.05469 0.13446,0.05035 0.004,-0.0043 -0.008,-0.10039 -0.0281,-0.213465 -0.0197,-0.113076 -0.0413,-0.336154 -0.0479,-0.495731 -0.0301,-0.729371 0.12792,-1.466522 0.4595,-2.143282 0.23681,-0.483313 0.46934,-0.813133 0.84258,-1.195091 0.40209,-0.411468 0.74608,-0.664029 1.23868,-0.909451 0.90385,-0.450327 1.7705,-0.52415602 2.67121,-0.227557 1.45165,0.478014 2.6108497,1.754947 2.9667297,3.268031 0.11698,0.497337 0.1537,1.058609 0.0986,1.506848 -0.017,0.138986 -0.0387,0.286159 -0.048,0.327051 -0.009,0.04089 -0.0135,0.07794 -0.009,0.08232 0.004,0.0044 0.075,-0.02268 0.15697,-0.06014 0.44405,-0.202982 0.84943,-0.259273 1.13722,-0.157912 0.35991,0.126762 0.68407,0.464071 0.92244,0.959877 0.26446,0.550015 0.34204,1.153964 0.15427,1.201087 -0.12447,0.03124 -0.44725,-0.152537 -0.7298,-0.415522 -0.0854,-0.07945 -0.15814,-0.141299 -0.1617,-0.137436 -0.004,0.0039 -0.0548,0.08704 -0.11386,0.18485 -0.3598,0.596027 -0.72673,1.010598 -0.97751,1.104432 -0.12089,0.04523 -0.14674,0.04595 -0.26172,0.0073 -0.16078,-0.05408 -0.34335,-0.192935 -0.6170297,-0.469339 l -0.2654,-0.26804 -0.13543,0.229322 c -0.41916,0.709641 -0.91404,1.35645 -1.47584,1.9288867 -0.59844,0.609756 -1.11516,0.979664 -1.50931,1.080472 -0.16798,0.04296 -0.21941,0.04393 -0.37311,0.007 z m -0.88859,-5.9645627 c 0.15456,-0.07808 0.22407,-0.245427 0.22407,-0.53949 0,-0.325662 -0.0896,-0.666339 -0.27162,-1.03235 -0.25222,-0.507271 -0.62519,-0.885322 -0.91227,-0.924669 -0.11685,-0.01602 -0.23869,0.04022 -0.30532,0.140917 -0.22082,0.333692 -0.0607,1.145549 0.34923,1.770635 0.12531,0.191103 0.4259,0.493732 0.54816,0.551897 0.17477,0.08315 0.25442,0.09031 0.36775,0.03306 z m 2.38534,0.01519 c 0.35911,-0.108074 0.7979,-0.67699 1.00064,-1.297374 0.15867,-0.485591 0.1502,-0.940305 -0.021,-1.122457 -0.0608,-0.0647 -0.18782,-0.106058 -0.2803,-0.09127 -0.36247,0.05796 -0.83794,0.639932 -1.05436,1.290535 -0.097,0.291695 -0.12668,0.468836 -0.11887,0.710715 0.006,0.182144 0.0133,0.222733 0.0581,0.31386 0.0603,0.123062 0.0984,0.161245 0.19529,0.195794 0.0917,0.0327 0.1124,0.03272 0.22046,2e-4 z"
            id="path32"
        />
  </g>
</svg>
