<?xml version="1.0" encoding="UTF-8" standalone="no" ?>
<!-- Created with Inkscape (http://www.inkscape.org/) -->
<svg
    width="48"
    height="48"
    viewBox="0 0 12.7 12.7"
    version="1.1"
    id="svg1"
    xmlns="http://www.w3.org/2000/svg"
    xmlns:svg="http://www.w3.org/2000/svg"
>
  <defs id="defs1" />
  <g id="layer1">
    <path
            style="fill:currentColor;stroke-width:0.210125"
            d="m 1.3152564,11.441522 c 0.26677,-0.746693 0.75916,-2.0064067 1.12709,-2.8836027 1.25814,-2.999521 2.59156,-5.50739 2.9083,-5.469934 0.08955,0.01059 0.09914,0.09086 0.09827,0.823663 0,0.757383 -0.03736,1.332688 -0.17766,2.80202 -0.12861,1.347071 -0.36519,3.3732387 -0.4632,3.9673057 -0.04776,0.289519 -0.16064,0.590565 -0.32187,0.858397 l -0.06156,0.102295 h -1.59044 -1.59044 z m 5.56706,0.183328 c 0,-0.02237 0.32367,-0.882794 0.4588,-1.219631 0.80424,-2.0046807 1.87573,-4.1507357 2.8557096,-5.7196797 0.58201,-0.931805 1.05376,-1.506748 1.19259,-1.453476 0.15188,0.05828 0.04194,1.388496 -0.29951,3.62393 -0.21992,1.439692 -0.59277,3.6075777 -0.68844,4.0028867 -0.05787,0.239059 -0.18463,0.535663 -0.30228,0.707176 l -0.05186,0.07561 H 8.4648064 c -0.98202,0 -1.58249,-0.0064 -1.58249,-0.01682 z m -0.99629,-1.037929 c 0,-0.02548 0.0082,-0.144841 0.01807,-0.265238 0.0099,-0.120397 0.06604,-0.8313457 0.12475,-1.5798847 0.22874,-2.916124 0.26997,-3.362654 0.32948,-3.567953 0.1002,-0.345823 0.2773,-0.7606 0.59965,-1.404522 0.62664,-1.251731 1.54747,-2.78601601 1.62536,-2.708141 0.01933,0.01932 0.0082,0.664693 -0.01975,1.133589 -0.06474,1.092104 -0.21523,2.916603 -0.32945,3.994074 -0.06577,0.620495 -0.06039,0.599967 -0.28006,1.067437 -0.49461,1.052561 -1.33379,2.440953 -1.9507,3.2273737 -0.1,0.127473 -0.11735,0.142746 -0.11735,0.103265 z"
            id="path23"
        />
  </g>
</svg>
