<?xml version="1.0" encoding="UTF-8" standalone="no" ?>
<!-- Created with Inkscape (http://www.inkscape.org/) -->
<svg
    width="48"
    height="48"
    viewBox="0 0 12.7 12.7"
    version="1.1"
    id="svg1"
    xmlns="http://www.w3.org/2000/svg"
    xmlns:svg="http://www.w3.org/2000/svg"
>
  <defs id="defs1" />
  <g id="layer1">
    <path
            style="fill:currentColor;stroke-width:0.210117"
            d="m 3.794668,10.602063 -2.50838,-1.0379187 -0.005,-0.456773 c -0.004,-0.362931 0,-0.45499 0.0179,-0.448092 0.0124,0.0048 1.14938,0.474004 2.52666,1.042731 1.37726,0.5687277 2.51269,1.0340497 2.52317,1.0340497 0.0105,0 1.14518,-0.465164 2.52154,-1.0336977 1.37637,-0.568534 2.51262,-1.037763 2.52502,-1.042731 0.0179,-0.0072 0.0216,0.08481 0.0179,0.448515 l -0.005,0.457548 -2.51574,1.0388267 c -1.38366,0.571354 -2.53244,1.038069 -2.55286,1.037144 -0.0204,-9e-4 -1.1659,-0.468747 -2.54551,-1.039602 z m 0.0793,-1.7929527 c -1.34583,-0.559507 -2.46897,-1.031729 -2.4959,-1.049384 -0.15639,-0.102524 -0.15894,-0.378913 -0.004,-0.477963 0.0302,-0.01938 1.1621,-0.493983 2.51526,-1.054663 l 2.46026,-1.019416 2.48437,1.030062 c 1.36639,0.566534 2.49964,1.043875 2.5183,1.060759 0.12115,0.109656 0.1172,0.327431 -0.008,0.442789 -0.04,0.03684 -4.91416,2.069712 -4.98732,2.080066 -0.0195,0.0028 -1.1367,-0.452743 -2.4825,-1.01225 z m 0.6946,-4.895492 v -0.524803 h 0.52481 0.52481 v 0.524803 0.524803 h -0.52481 -0.52481 z m 4.14507,-0.933972 v -0.693807 h 0.7027 0.7027 v 0.693807 0.693808 h -0.7027 -0.7027 z m -6.61785,-1.005132 v -0.916181 h 0.91617 0.91618 v 0.916181 0.916182 h -0.91618 -0.91617 z"
            id="path27"
        />
  </g>
</svg>
