<?xml version="1.0" encoding="UTF-8" standalone="no" ?>
<!-- Created with Inkscape (http://www.inkscape.org/) -->
<svg
    width="48"
    height="48"
    viewBox="0 0 12.7 12.7"
    version="1.1"
    id="svg1"
    xmlns="http://www.w3.org/2000/svg"
    xmlns:svg="http://www.w3.org/2000/svg"
>
  <defs id="defs1" />
  <g id="layer1">
    <path
            style="fill:currentColor;stroke-width:0.210265"
            d="m 5.7947109,11.103035 -0.5384,-0.538632 0.54297,-0.542758 0.54298,-0.5427565 0.54297,0.5427565 0.54297,0.542758 -0.5384,0.538632 c -0.29614,0.296247 -0.54253,0.538631 -0.54754,0.538631 -0.005,0 -0.25141,-0.242384 -0.54755,-0.538631 z m -0.7437,-2.3867355 c -0.6955,-0.403169 -1.29433,-0.750789 -1.33073,-0.77249 l -0.06619,-0.03946 v -1.549002 -1.549003 l 0.04005,-0.02597 c 0.02204,-0.01428 0.62487,-0.363696 1.33965,-0.776472 1.07714,-0.622052 1.30625,-0.747932 1.33858,-0.735494 0.02147,0.0083 0.62821,0.355479 1.34833,0.771611 l 1.3093,0.756604 -4e-5,1.557714 -2e-5,1.557714 -1.32644,0.765505 c -0.72956,0.421027 -1.34029,0.766915 -1.3572,0.768639 -0.01682,0.0017 -0.5998,-0.326731 -1.29529,-0.7299 z m 0.04932,-2.364154 0.0046,-0.732097 0.6116,-0.352736 c 0.33636,-0.194006 0.61582,-0.35698 0.62099,-0.362165 0.0074,-0.0073 -0.35286,-0.691336 -0.37923,-0.720309 -0.0053,-0.0058 -1.4654,0.830996 -1.6322,0.935401 l -0.06676,0.04179 v 0.961109 0.961108 h 0.41815 0.41816 z m -2.60068,2.850735 c -0.39505,-0.106421 -0.72281,-0.198041 -0.72838,-0.203599 -0.01472,-0.01464 0.38117,-1.479286 0.39908,-1.476759 0.0294,0.0041 1.45716,0.386439 1.46408,0.392014 0.0061,0.005 -0.32762,1.276355 -0.37446,1.426165 -0.0099,0.03182 -0.02349,0.05737 -0.03007,0.05676 -0.0065,-6.1e-4 -0.3352,-0.08816 -0.73025,-0.194585 z m 6.94024,0.185483 c 0,-0.0056 -0.08846,-0.339074 -0.19658,-0.741035 -0.10809,-0.401961 -0.19422,-0.732408 -0.19136,-0.734327 0.0029,-0.0019 0.33636,-0.09183 0.74112,-0.199798 0.5434301,-0.144957 0.7382201,-0.190404 0.7446101,-0.17373 0.01325,0.03452 0.39452,1.458116 0.39143,1.461458 -0.0038,0.0041 -1.4683401,0.397628 -1.4798401,0.397628 -0.0051,0 -0.0095,-0.0046 -0.0095,-0.0102 z m -7.29027,-4.214818 c -0.0438,-0.133002 -0.38598,-1.456506 -0.3785,-1.463988 0.02572,-0.02572 1.46286,-0.398867 1.47299,-0.382461 0.01683,0.02734 0.39808,1.460839 0.39017,1.46733 -0.0038,0.0031 -0.27126,0.07608 -0.59438,0.162127 -0.32311,0.08605 -0.65407,0.174772 -0.73544,0.197159 -0.1062,0.02922 -0.1499,0.03481 -0.15484,0.01983 z m 7.63742,-0.180296 c -0.65752,-0.178086 -0.72956,-0.201171 -0.72628,-0.232762 0.004,-0.03804 0.37879,-1.438099 0.38733,-1.446684 0.0048,-0.0049 1.4726801,0.385016 1.4802701,0.393172 0.0069,0.0074 -0.38803,1.463765 -0.39957,1.473735 -0.0065,0.0056 -0.34031,-0.07873 -0.7417501,-0.187461 z m -3.99233,-2.31077 -0.5384,-0.538633 0.54297,-0.542756 0.54298,-0.542757 0.54297,0.542757 0.54297,0.542756 -0.5384,0.538633 c -0.29614,0.296247 -0.54253,0.538632 -0.54754,0.538632 -0.005,0 -0.25141,-0.242385 -0.54755,-0.538632 z"
            id="path24"
        />
  </g>
</svg>
