<?xml version="1.0" encoding="UTF-8" standalone="no" ?>
<!-- Created with Inkscape (http://www.inkscape.org/) -->
<svg
    width="48"
    height="48"
    viewBox="0 0 12.7 12.7"
    version="1.1"
    id="svg1"
    xmlns="http://www.w3.org/2000/svg"
    xmlns:svg="http://www.w3.org/2000/svg"
>
  <defs id="defs1" />
  <g id="layer1">
    <path
            style="fill:currentColor;stroke-width:0.209926"
            d="M 6.017925,11.637168 C 4.657199,11.529781 3.504486,10.993047 2.576449,10.034727 1.784358,9.2167883 1.282872,8.1575333 1.14783,7.0171523 1.11194,6.7140583 1.11187,6.1117403 1.14763,5.8104013 1.21408,5.2513513 1.369836,4.7018643 1.603083,4.2036153 l 0.08618,-0.184097 -0.07991,-0.111985 c -0.10253,-0.143686 -0.229018,-0.410911 -0.278882,-0.58919 -0.0337,-0.120508 -0.03898,-0.183351 -0.03858,-0.459528 6e-4,-0.371895 0.02388,-0.485654 0.157594,-0.767929 0.101884,-0.215078 0.201158,-0.352964 0.376317,-0.522673 0.556079,-0.538783 1.360693,-0.66191096 2.059119,-0.3151 0.142746,0.07088 0.290971,0.171625 0.392271,0.266611 l 0.05447,0.05107 0.19023,-0.07057 c 0.597286,-0.221576 1.162633,-0.321037 1.824803,-0.321037 0.657205,0 1.24787,0.103272 1.819223,0.318075 l 0.192923,0.07253 0.09146,-0.07691 c 0.243586,-0.204831 0.51398,-0.335678 0.837958,-0.405494 0.06146,-0.01324 0.212064,-0.02227 0.355476,-0.0213 0.208362,0.0014 0.27774,0.0093 0.426571,0.04849 1.102236,0.290295 1.667147,1.506207 1.17383,2.526544 -0.04261,0.08813 -0.113518,0.209197 -0.157575,0.269046 l -0.08011,0.108816 0.07164,0.148639 c 0.231243,0.479785 0.395051,1.040392 0.47016,1.609046 0.04133,0.312934 0.04117,0.963497 -4e-4,1.267869 -0.09001,0.660342 -0.24751,1.171883 -0.536459,1.742344 -0.779518,1.5389647 -2.28909,2.5994407 -4.009656,2.8167857 -0.21521,0.02719 -0.808136,0.04737 -0.983941,0.03349 z M 7.00917,10.015049 C 7.665258,9.8790203 8.17121,9.6449753 8.658827,9.2519483 c 0.17141,-0.138159 0.480254,-0.456525 0.606827,-0.625535 0.391608,-0.522903 0.632849,-1.108609 0.715974,-1.738299 0.03077,-0.233134 0.03477,-0.69311 0.0079,-0.910464 C 9.81408,4.5582863 8.850514,3.3785083 7.502042,2.9320023 7.064598,2.7871553 6.670841,2.7311573 6.213442,2.7487433 c -0.938192,0.03607 -1.79215,0.408415 -2.452999,1.069557 -0.605553,0.605818 -0.969101,1.371499 -1.058845,2.230065 -0.02565,0.245394 -0.0122,0.702789 0.02775,0.942859 0.265177,1.593928 1.501675,2.803039 3.119036,3.0499497 0.236137,0.03605 0.936984,0.02028 1.160787,-0.02612 z"
            id="path19"
        />
  </g>
</svg>
