<?xml version="1.0" encoding="UTF-8" standalone="no" ?>
<!-- Created with Inkscape (http://www.inkscape.org/) -->
<svg
    width="48"
    height="48"
    viewBox="0 0 12.7 12.7"
    version="1.1"
    id="svg1"
    xmlns="http://www.w3.org/2000/svg"
    xmlns:svg="http://www.w3.org/2000/svg"
>
  <defs id="defs1" />
  <g id="layer1">
    <path
            style="fill:currentColor;stroke-width:0.209988"
            d="m 5.7131162,11.634553 c -2.4331,-0.05624 -4.47494,-0.458758 -4.85502,-0.957082 -0.0689,-0.09033 -0.0805,-0.230557 -0.0263,-0.318236 0.14918,-0.241389 0.68238,-0.4732378 1.49441,-0.6498058 0.53301,-0.115898 1.46762,-0.243563 2.03571,-0.278071 0.10755,-0.0065 0.20442,-0.01884 0.21523,-0.02734 0.0109,-0.0085 0.0248,-0.06943 0.031,-0.135401 0.0332,-0.352741 0.21437,-0.722678 0.49097,-1.002323 0.23859,-0.241198 0.49015,-0.386665 0.81828,-0.473146 0.23334,-0.06149 0.59219,-0.06491 0.82349,-0.0078 0.33584,0.08286 0.63076,0.249908 0.85812,0.486048 0.26649,0.276782 0.42052,0.583066 0.48009,0.954627 0.0151,0.09437 0.033,0.176284 0.0397,0.182026 0.007,0.0057 0.14026,0.01975 0.29672,0.03114 1.07071,0.07791 2.2145698,0.286096 2.8005998,0.509732 0.3683,0.1405488 0.6075,0.3056878 0.66648,0.4601138 0.0455,0.119138 0.0145,0.207776 -0.11681,0.333793 -0.59089,0.567181 -3.2358498,0.956871 -6.0526898,0.891756 z m 2.66685,-4.5317138 c -0.41935,-0.09215 -0.7858,-0.422266 -0.92616,-0.83436 -0.0649,-0.190457 -0.0802,-0.498547 -0.0342,-0.689699 0.11295,-0.47002 0.48009,-0.838867 0.94259,-0.946977 0.19065,-0.04457 0.50727,-0.02866 0.69338,0.03483 0.54022,0.184319 0.88995,0.703314 0.8573,1.272272 -0.0185,0.323054 -0.13758,0.587445 -0.36851,0.818366 -0.24207,0.242077 -0.50095,0.354336 -0.84438,0.366173 -0.13313,0.0046 -0.23529,-0.002 -0.32002,-0.02061 z m -4.20745,-1.980577 c -0.47086,-0.05985 -0.89966,-0.276235 -1.2276,-0.619496 -0.68819,-0.720313 -0.75614,-1.825632 -0.16146,-2.626118 0.64866,-0.873118 1.88207,-1.078962 2.78676,-0.46508 0.14132,0.09589 0.38109,0.328002 0.48841,0.472839 0.25934,0.349916 0.39232,0.760269 0.39232,1.210521 0,0.576944 -0.20682,1.062568 -0.62522,1.468157 -0.28642,0.277631 -0.61188,0.449435 -1.00708,0.531594 -0.1615,0.03357 -0.489,0.04755 -0.64613,0.02758 z"
            id="path26"
        />
  </g>
</svg>
