<?xml version="1.0" encoding="UTF-8" standalone="no" ?>
<!-- Created with Inkscape (http://www.inkscape.org/) -->
<svg
    width="48"
    height="48"
    viewBox="0 0 12.7 12.7"
    version="1.1"
    id="svg1"
    xmlns="http://www.w3.org/2000/svg"
    xmlns:svg="http://www.w3.org/2000/svg"
>
  <defs id="defs1" />
  <g id="layer1">
    <path
            style="fill:currentColor;stroke-width:0.209939"
            d="m 6.1892383,11.624286 c -0.0488,-0.0093 -0.14077,-0.04174 -0.20442,-0.07208 -0.0999,-0.04763 -0.16313,-0.103781 -0.46233,-0.410571 -0.49128,-0.503739 -0.90417,-0.858699 -1.2306,-1.057947 -0.38152,-0.2328663 -0.98353,-0.4568473 -1.67565,-0.6234563 -0.42406,-0.102076 -0.46999,-0.117231 -0.58956,-0.194501 -0.23257,-0.150313 -0.36132,-0.39433 -0.36132,-0.684704 0,-0.122676 0.0115,-0.187104 0.0634,-0.351614 0.22879,-0.727099 0.35211,-1.385886 0.35211,-1.881141 0,-0.495255 -0.12332,-1.154042 -0.35211,-1.881141 -0.10753,-0.341657 -0.0803,-0.608363 0.0851,-0.833063 0.14956,-0.203143 0.28231,-0.275936 0.65963,-0.3617 0.56828,-0.129167 1.15456,-0.32412 1.547,-0.51443 0.43306,-0.210011 0.7757,-0.480421 1.39979,-1.104707 0.39175,-0.391865 0.4739,-0.465587 0.5698,-0.511359 0.23469,-0.112013 0.48844,-0.111328 0.7233,0.0019 0.0991,0.04778 0.16587,0.107213 0.4688,0.417047 0.93114,0.952403 1.3882,1.241168 2.46888,1.559759 0.1782,0.05254 0.4359797,0.120602 0.5728597,0.151259 0.13686,0.03066 0.29684,0.07837 0.35549,0.106039 0.28462,0.134236 0.4561,0.409058 0.45597,0.73071 -4e-5,0.129082 -0.012,0.189736 -0.0817,0.41647 -0.25573,0.830767 -0.37443,1.567608 -0.33191,2.060734 0.0386,0.447611 0.15963,1.02594 0.33191,1.585591 0.0698,0.226734 0.0817,0.287387 0.0817,0.41647 0,0.321813 -0.172,0.597498 -0.45597,0.730275 -0.0587,0.02743 -0.21838,0.07519 -0.35492,0.106147 -0.5383897,0.122044 -1.1314697,0.316615 -1.5152397,0.497103 -0.4465,0.2099903 -0.88903,0.5618113 -1.53373,1.2193723 -0.37667,0.384199 -0.44492,0.434198 -0.65268,0.478223 -0.13547,0.02871 -0.20496,0.0298 -0.33363,0.0053 z m 0.33497,-2.1537243 c 0.50033,-0.456455 0.92863,-0.762851 1.38919,-0.993839 0.24643,-0.123585 0.7096,-0.307319 1.02186,-0.405358 0.13199,-0.04144 0.24294,-0.07778 0.24655,-0.08076 0.004,-0.003 -0.0261,-0.167765 -0.0662,-0.366178 -0.11899,-0.589871 -0.13528,-0.74358 -0.13528,-1.276154 0,-0.532575 0.0164,-0.686284 0.13528,-1.276155 0.04,-0.198412 0.0698,-0.362957 0.0662,-0.365655 -0.004,-0.0027 -0.13457,-0.04643 -0.29097,-0.09718 -0.96507,-0.313133 -1.5783,-0.669284 -2.34089,-1.359499 -0.10457,-0.09464 -0.19541,-0.172081 -0.20185,-0.172081 -0.007,0 -0.0849,0.0665 -0.17425,0.147773 -0.3633,0.330304 -0.71103,0.601461 -1.00255,0.781782 -0.35133,0.217326 -0.90723,0.460969 -1.41427,0.619848 -0.23659,0.07413 -0.24544,0.07865 -0.23818,0.121433 0.004,0.02444 0.0324,0.164417 0.0629,0.31106 0.11792,0.568393 0.13539,0.734752 0.13539,1.288678 0,0.553926 -0.0174,0.720285 -0.13539,1.288677 -0.0304,0.146643 -0.0587,0.28662 -0.0629,0.31106 -0.007,0.04279 0.002,0.0473 0.23818,0.121433 0.50704,0.158879 1.06294,0.402522 1.41427,0.619849 0.29064,0.179775 0.93818,0.692986 1.11417,0.883022 0.0237,0.02559 0.0505,0.04653 0.0596,0.04653 0.009,0 0.0897,-0.06673 0.1791,-0.14828 z"
            id="path29"
        />
  </g>
</svg>
