<?xml version="1.0" encoding="UTF-8" standalone="no" ?>
<!-- Created with Inkscape (http://www.inkscape.org/) -->
<svg
    width="48"
    height="48"
    viewBox="0 0 12.7 12.7"
    version="1.1"
    id="svg1"
    xmlns="http://www.w3.org/2000/svg"
    xmlns:svg="http://www.w3.org/2000/svg"
>
  <defs id="defs1" />
  <g id="layer1">
    <path
            style="fill:currentColor;stroke-width:0.209732"
            d="M 2.607615,10.092306 1.058325,8.5429465 v -2.193022 -2.193023 l 1.54937,-1.549284 1.54935,-1.549284 h 2.19304 2.19301 l 1.549289,1.54936 1.549291,1.54936 v 2.193023 2.193022 l -1.549371,1.5492845 -1.549349,1.549284 h -2.19304 -2.19302 z m 1.2164,-1.2163245 c -1.11988,-1.119891 -2.03931,-2.032506 -2.04314,-2.028032 -0.01469,0.01716 0.92403,3.132035 0.94817,3.1462 0.03803,0.022301 3.11366,0.9334565 3.12301,0.9251885 0.0044,-0.004 -0.90814,-0.9234655 -2.02804,-2.0433565 z m 4.63022,1.5760915 c 0.83016,-0.24651 1.518559,-0.4572605 1.529799,-0.4683345 0.01133,-0.01107 0.22528,-0.711336 0.47565,-1.556138 0.25038,-0.844801 0.45869,-1.545991 0.4629,-1.558199 0.0042,-0.01221 0.0059,-0.0222 0.0038,-0.0222 -0.0021,0 -0.92282,0.918953 -2.045949,2.042117 -1.46156,1.4616025 -2.02693,2.0376885 -1.98881,2.0265355 0.0293,-0.0086 0.73249,-0.217274 1.56265,-0.463784 z m 1.811659,-6.7497215 c -0.15151,-0.511743 -0.28188,-0.941643 -0.28972,-0.955335 -0.01091,-0.01897 -1.633909,-0.517081 -1.885969,-0.578792 -0.02854,-0.007 0.3988,0.432675 1.19786,1.232388 0.683239,0.683792 1.244739,1.240765 1.247779,1.237718 0.0031,-0.003 -0.11842,-0.424237 -0.26995,-0.935979 z"
            id="path31"
        />
  </g>
</svg>
