<?xml version="1.0" encoding="UTF-8" standalone="no" ?>
<!-- Created with Inkscape (http://www.inkscape.org/) -->
<svg
    width="48"
    height="48"
    viewBox="0 0 12.7 12.7"
    version="1.1"
    id="svg1"
    xmlns="http://www.w3.org/2000/svg"
    xmlns:svg="http://www.w3.org/2000/svg"
>
  <defs id="defs1" />
  <g id="layer1">
    <path
            style="fill:currentColor;stroke-width:0.219416"
            d="m 4.0929458,10.044028 c -1.21204,-0.8806229 -2.19849,-1.6062089 -2.19212,-1.6124129 0.006,-0.0062 1.00641,-0.306466 2.22231,-0.667252 1.21587,-0.360785 2.21905,-0.658842 2.22927,-0.662348 0.0101,-0.0035 0.0721,0.1839 0.13762,0.416459 0.0655,0.232559 0.30475,1.073308 0.53171,1.868329 l 0.41266,1.4454939 -0.55561,0.402943 c -0.30558,0.221619 -0.56157,0.404514 -0.56886,0.406433 -0.007,0.0019 -1.00493,-0.717022 -2.21698,-1.597645 z m 3.653,-2.9615789 c -0.45758,-1.601778 -0.83528,-2.921172 -0.83936,-2.931986 -0.008,-0.02062 3.4085202,-1.299757 3.4256402,-1.282638 0.0112,0.01114 1.5478,4.735732 1.54168,4.739989 -0.002,0.0016 -0.72554,0.526663 -1.60738,1.16692 -0.88181,0.640257 -1.6224902,1.176688 -1.6459702,1.192071 l -0.0427,0.02797 z m 1.41859,-1.303235 c 0.2323202,-0.07231 0.4049502,-0.222614 0.5097502,-0.443861 0.0558,-0.117866 0.0592,-0.136935 0.0592,-0.33854 0,-0.201932 -0.003,-0.220534 -0.0596,-0.339477 -0.15504,-0.327328 -0.5279402,-0.524984 -0.8711302,-0.461749 -0.51258,0.09445 -0.80815,0.606136 -0.63196,1.094022 0.0818,0.226555 0.33116,0.449536 0.56409,0.504435 0.1218,0.02871 0.31076,0.02218 0.42969,-0.01483 z m -8.33846002,1.562978 c 0,-0.0077 0.45827002,-1.422553 1.01785002,-3.144201 l 1.01743,-3.130268 3.44642,-0.0047 3.4464002,-0.0047 0.0838,0.266204 0.0838,0.266205 -2.2676702,0.84217 c -1.2472,0.463193 -2.28915,0.852803 -2.31541,0.8658 l -0.0477,0.02363 0.35681,1.247314 c 0.23482,0.820782 0.3496,1.250002 0.33569,1.255176 -0.0307,0.01143 -5.14354002,1.531288 -5.15124002,1.531288 -0.004,0 -0.006,-0.0063 -0.006,-0.01393 z M 4.1540558,2.7905841 c 0.14314,-0.07048 0.24138,-0.171198 0.31025,-0.318048 0.0409,-0.0872 0.049,-0.130484 0.049,-0.262702 0,-0.141146 -0.007,-0.171624 -0.0606,-0.281304 -0.0705,-0.143159 -0.17119,-0.241406 -0.31804,-0.310267 -0.0872,-0.04086 -0.13053,-0.04895 -0.26231,-0.04895 -0.13181,0 -0.17518,0.0081 -0.26232,0.04895 -0.14696,0.06891 -0.24758,0.167099 -0.31804,0.310379 -0.0548,0.111421 -0.0606,0.139033 -0.0605,0.290593 6e-5,0.147034 0.007,0.179944 0.0524,0.269648 0.1714,0.334546 0.54224,0.463132 0.87014,0.301701 z"
            id="path35"
        />
  </g>
</svg>
