<?xml version="1.0" encoding="UTF-8" standalone="no" ?>
<!-- Created with Inkscape (http://www.inkscape.org/) -->
<svg
    width="46.256783"
    height="39.999977"
    viewBox="0 0 12.238774 10.583327"
    version="1.1"
    id="svg1"
    xmlns="http://www.w3.org/2000/svg"
    xmlns:svg="http://www.w3.org/2000/svg"
>
  <defs id="defs1" />
  <g id="layer1" transform="translate(-0.23061312,-1.0583364)">
    <path
            style="fill:currentColor;stroke-width:0.231232"
            d="m 3.2718069,11.639628 c -0.0162,-0.02679 -0.79474,-2.7111932 -0.79474,-2.7402872 0,-0.01257 0.003,-0.02286 0.006,-0.02286 0.004,0 0.39178,-0.132149 0.86314,-0.293664 0.47135,-0.161516 0.86995,-0.293665 0.88578,-0.293665 0.0267,0 0.70709,0.382076 1.24877,0.701253 l 0.23357,0.137627 0.17199,0.8775782 c 0.0946,0.482669 0.17666,0.896624 0.1824,0.919902 0.01,0.04017 -0.0106,0.04747 -0.40556,0.143679 -0.22878,0.05575 -0.7904,0.192997 -1.24803,0.305002 -0.45761,0.112004 -0.90042,0.220358 -0.98396,0.240785 -0.0836,0.02043 -0.15534,0.03152 -0.15948,0.02465 z m 5.46032,-0.149725 c -0.32304,-0.07931 -0.93411,-0.227961 -1.35794,-0.330343 -0.42385,-0.102383 -0.77312,-0.18883 -0.7762,-0.192106 -0.003,-0.0033 0.0751,-0.418863 0.1737,-0.923529 l 0.17926,-0.9175732 0.15642,-0.08916 c 0.0861,-0.04904 0.41389,-0.237409 0.72852,-0.4186 0.31466,-0.181192 0.58336,-0.329562 0.59714,-0.329712 0.0561,-6e-4 1.7576101,0.59464 1.7572901,0.614765 0,0.01198 -0.17874,0.629666 -0.3967901,1.3726372 -0.34718,1.182871 -0.40128,1.35129 -0.43527,1.354337 -0.0213,0.0019 -0.3031,-0.06141 -0.62613,-0.140716 z M 1.2143069,7.3976608 C 0.67592688,6.8326638 0.23325688,6.3638198 0.23062688,6.3557848 c -0.006,-0.01866 1.95150002,-2.07026 1.97546002,-2.07026 0.01,0 0.33031,0.271835 0.71219,0.604078 l 0.6943,0.604078 v 0.857167 0.857167 l -0.69941,0.60909 c -0.38467,0.334999 -0.70403,0.608805 -0.70967,0.608456 -0.006,-3e-4 -0.45079,-0.462904 -0.98919,-1.0279 z m 4.50287,0.685773 c -0.32303,-0.187296 -0.7216,-0.418056 -0.88568,-0.512801 l -0.29838,-0.172264 v -1.047403 -1.047404 l 0.33732,-0.194607 c 1.16069,-0.669643 1.45334,-0.834089 1.47533,-0.829066 0.0136,0.0031 0.42024,0.234435 0.90375,0.514078 l 0.87905,0.508442 0.012,0.524278 c 0.006,0.288354 0.006,0.76037 -2e-5,1.048926 l -0.012,0.524647 -0.56962,0.328817 c -0.3133,0.18085 -0.71058,0.411396 -0.88287,0.512325 -0.17226,0.100929 -0.32645,0.183296 -0.34259,0.183039 -0.0162,-3e-4 -0.29366,-0.153711 -0.6167,-0.341007 z m 4.03967,-0.262966 -0.6955,-0.606594 -0.0129,-0.297524 c -0.007,-0.163637 -0.0129,-0.41806 -0.0129,-0.565384 0,-0.147324 0.006,-0.401747 0.0129,-0.565385 l 0.0129,-0.297523 0.6955,-0.606594 c 0.3825301,-0.333627 0.7022301,-0.604197 0.7104401,-0.601267 0.008,0.0029 0.24552,0.247601 0.52737,0.543713 0.28185,0.296112 0.62403,0.652914 0.76036,0.792894 0.13633,0.13998 0.35286,0.362431 0.48112,0.494336 l 0.23325,0.239826 -0.23325,0.239826 c -0.12826,0.131904 -0.34479,0.354355 -0.48112,0.494335 -0.13633,0.13998 -0.47851,0.496782 -0.76036,0.792894 -0.28185,0.296112 -0.51916,0.540783 -0.52737,0.543713 -0.008,0.0029 -0.32791,-0.26764 -0.7104401,-0.601266 z m -5.94849,-3.541908 c -0.20998,-0.0727 -0.59539,-0.205489 -0.85652,-0.295076 -0.26111,-0.08959 -0.47477,-0.17253 -0.47477,-0.184316 0,-0.01179 0.0979,-0.356484 0.21743,-0.765996 0.11957,-0.409511 0.29688,-1.017674 0.39402,-1.351473 0.0971,-0.333798 0.17966,-0.612298 0.18341,-0.618888 0.004,-0.0066 0.30879,0.06217 0.67786,0.152801 0.36907,0.09063 0.99672,0.244023 1.39474,0.340874 0.39804,0.09685 0.72473,0.177859 0.72595,0.180019 0.005,0.0083 -0.35716,1.834972 -0.36481,1.841551 -0.012,0.01036 -0.95221,0.554716 -1.21686,0.704551 -0.12644,0.0716 -0.24538,0.129716 -0.2643,0.129158 -0.019,-6e-4 -0.20619,-0.0605 -0.41615,-0.133205 z m 3.86801,-0.28586 -0.72295,-0.418267 -0.13344,-0.682069 c -0.0734,-0.375138 -0.15412,-0.789295 -0.17942,-0.92035 l -0.046,-0.238282 0.0801,-0.02006 c 0.11923,-0.02986 2.68123,-0.65153 2.70042,-0.655253 0.0178,-0.0034 0.0464,0.09098 0.51502,1.694989 0.1690801,0.57867 0.3032001,1.056345 0.2980401,1.0615 -0.0178,0.01784 -1.7247401,0.597872 -1.7567401,0.59697 -0.0176,-5e-4 -0.35744,-0.189126 -0.75506,-0.419174 z"
            id="path37"
        />
  </g>
</svg>
