<?xml version="1.0" encoding="UTF-8" standalone="no" ?>
<!-- Created with Inkscape (http://www.inkscape.org/) -->
<svg
    width="48"
    height="48"
    viewBox="0 0 12.7 12.7"
    version="1.1"
    id="svg1"
    xmlns="http://www.w3.org/2000/svg"
    xmlns:svg="http://www.w3.org/2000/svg"
>
  <defs id="defs1" />
  <g id="layer1">
    <path
            style="fill:currentColor;stroke-width:0.2101"
            d="m 6.0262101,11.63094 c -1.437679,-0.110742 -2.47398,-1.018774 -2.777552,-2.4337577 -0.04546,-0.211912 -0.04829,-0.251967 -0.04845,-0.687523 -2e-4,-0.407199 0.0048,-0.490151 0.04135,-0.693751 0.07981,-0.444407 0.216164,-0.842743 0.43842,-1.280772 0.173888,-0.342705 0.339502,-0.613228 0.800418,-1.307454 0.473148,-0.712644 0.511466,-0.774639 0.651769,-1.054461 0.221063,-0.440892 0.374521,-0.89116 0.550012,-1.613813 0.253362,-1.043305 0.305472,-1.2139 0.414052,-1.355352 0.08602,-0.112072 0.14119,-0.145723 0.23889,-0.145723 0.11102,0 0.18702,0.04608 0.26071,0.158044 0.11651,0.177039 0.14506,0.272196 0.41887,1.396397 0.17905,0.735163 0.3771,1.284644 0.62431,1.732151 0.06013,0.108845 0.29798,0.482071 0.52855,0.829392 0.62293,0.938297 0.85198,1.335677 1.03586,1.797051 0.30981,0.777337 0.38097,1.656759 0.19346,2.391187 -0.2533,0.9920177 -0.92913,1.7532777 -1.84798,2.0815427 -0.43553,0.155594 -1.01124,0.226237 -1.522689,0.186842 z m 0.64216,-0.907305 c 0.39218,-0.03698 0.68863,-0.11595 0.99734,-0.265672 0.53414,-0.259059 0.94399,-0.7488927 1.04733,-1.2517567 0.04501,-0.218932 0.0086,-0.31348 -0.10982,-0.285543 -0.0271,0.0064 -0.17735,0.06371 -0.33389,0.127371 -0.50832,0.206723 -0.84427,0.306019 -1.2577,0.371737 -0.28802,0.04579 -1.0614,0.04596 -1.339417,3.2e-4 -0.428898,-0.07043 -0.770584,-0.171413 -1.243886,-0.367617 -0.333376,-0.138198 -0.394791,-0.15419 -0.438891,-0.11428 -0.07718,0.06984 -0.03043,0.337091 0.108628,0.621 0.36189,0.7388597 1.159962,1.1660227 2.205646,1.1805567 0.09294,0.0013 0.25704,-0.006 0.36466,-0.0161 z"
            id="path21"
        />
  </g>
</svg>
